<svg version="1.1" id="Layer_1" xmlns="http://www.w3.org/2000/svg" xmlns:xlink="http://www.w3.org/1999/xlink" x="0px" y="0px"
	 width="100%" viewBox="0 0 1584 672" enable-background="new 0 0 1584 672" xml:space="preserve">
<path fill="#FFFFFF" opacity="1.000000" stroke="none" 
	d="
M1000.000000,673.000000 
	C666.703491,673.000000 333.906982,673.000000 1.055230,673.000000 
	C1.055230,449.061615 1.055230,225.123199 1.055230,1.092401 
	C528.880005,1.092401 1056.760010,1.092401 1584.820068,1.092401 
	C1584.820068,224.999878 1584.820068,448.999939 1584.820068,673.000000 
	C1390.122925,673.000000 1195.311523,673.000000 1000.000000,673.000000 
M367.001404,451.037048 
	C367.001404,451.037048 367.056427,451.087555 367.725677,450.958649 
	C370.835571,447.979187 373.945496,444.999756 377.495819,441.823669 
	C377.770721,441.625824 377.942261,441.361023 378.607513,440.721954 
	C395.013123,423.632202 404.515442,403.106567 408.986725,379.348511 
	C409.000244,378.903503 409.013763,378.458466 409.534973,377.438324 
	C410.657745,367.895142 412.613220,358.363739 412.748657,348.806549 
	C413.170746,319.014191 413.215363,289.206970 412.727661,259.416626 
	C412.566681,249.583618 410.341858,239.784393 409.077179,229.304916 
	C409.005768,228.868439 408.934326,228.431946 408.913910,227.200531 
	C408.230896,223.982422 407.842438,220.665421 406.802246,217.567230 
	C404.773224,211.523758 402.379578,205.602692 400.128113,198.906036 
	C398.075317,194.582138 396.299622,190.099167 393.923676,185.960785 
	C380.895721,163.268661 362.902985,146.163483 337.612854,136.454453 
	C336.410522,136.036667 335.208221,135.618866 333.356537,135.035950 
	C332.910583,135.011307 332.464661,134.986649 331.584106,134.396027 
	C327.723358,133.277298 323.862579,132.158585 319.365173,130.911942 
	C318.932800,130.895752 318.500397,130.879562 317.592438,130.392883 
	C305.734650,128.950424 293.890564,126.412369 282.016632,126.264305 
	C241.091736,125.753975 200.156433,126.066780 159.225174,126.123779 
	C157.484970,126.126198 155.745560,126.703819 153.329926,127.003975 
	C152.879761,127.021309 152.429581,127.038635 151.469986,126.569077 
	C144.645493,127.377617 137.820999,128.186142 130.319611,128.975021 
	C129.876282,129.054153 129.432953,129.133286 128.198120,129.160583 
	C125.760666,129.644714 123.291092,130.005646 120.890549,130.631378 
	C82.725136,140.579681 55.312351,163.205399 39.779034,199.706696 
	C33.758003,213.855347 30.525709,228.709259 29.027998,244.780167 
	C29.000626,245.841904 28.973253,246.903656 28.419476,248.612183 
	C28.008299,254.897232 27.227581,261.183624 27.250257,267.467102 
	C27.345728,293.921570 27.675167,320.375244 27.930759,346.829071 
	C28.092304,363.548920 30.614420,379.871643 35.767559,395.817108 
	C47.535793,432.231781 71.731346,456.933838 106.944702,470.961182 
	C123.616760,477.602539 141.145584,480.404297 159.146179,480.069794 
	C166.915482,479.925415 174.689697,480.045563 183.027756,480.045563 
	C183.027756,482.497192 183.026627,484.280823 183.027924,486.064453 
	C183.038071,500.051422 183.050766,514.038391 183.058456,528.025330 
	C183.063614,537.401001 186.207108,545.080872 195.273804,549.051819 
	C204.497040,553.091309 212.373352,550.049377 219.568024,543.832458 
	C235.661591,529.925842 251.866959,516.148560 267.944763,502.223877 
	C271.538055,499.111786 274.793915,495.610077 278.187012,492.219513 
	C278.187012,492.219513 278.157196,492.158020 278.834442,492.123718 
	C280.559723,490.750336 282.285034,489.376923 284.537109,487.803802 
	C285.049011,487.268860 285.560883,486.733887 286.735382,485.985840 
	C290.969940,481.938324 295.867432,479.557556 301.862732,479.437683 
	C304.660065,479.381775 307.483246,478.897400 310.229675,478.305481 
	C323.355621,475.476532 336.107666,471.403229 347.798401,464.761017 
	C353.586090,461.472748 358.692108,456.984741 364.674866,452.979370 
	C365.120087,452.669556 365.565277,452.359711 366.486755,451.854065 
	C366.683167,451.580566 366.879578,451.307068 367.001404,451.037048 
M992.859863,203.924820 
	C992.846436,276.438171 992.831665,348.951538 992.832275,421.464874 
	C992.832275,422.620178 993.022644,423.775482 993.333801,425.657043 
	C995.378235,426.429016 997.420593,427.868622 999.467346,427.874847 
	C1044.457764,428.012146 1089.448730,427.949921 1134.439331,428.059448 
	C1139.150757,428.070892 1141.108032,426.327454 1141.021973,421.608032 
	C1140.854736,412.446136 1140.962280,403.279358 1140.944092,394.114594 
	C1140.931519,387.730042 1140.177246,386.983276 1133.697876,386.982483 
	C1103.204102,386.978607 1072.710327,386.982605 1042.216553,386.983826 
	C1040.278809,386.983887 1038.341064,386.983826 1036.174805,386.983826 
	C1036.174805,369.049469 1036.174805,351.820007 1036.174805,334.032745 
	C1038.437134,334.032745 1040.390991,334.032990 1042.344727,334.032715 
	C1070.005737,334.029022 1097.666748,334.030426 1125.327759,334.018005 
	C1132.722534,334.014709 1133.071777,333.666840 1133.091309,326.487091 
	C1133.114380,317.988861 1133.122803,309.490601 1133.125610,300.992340 
	C1133.128174,293.351959 1132.746094,292.959778 1125.317505,292.958344 
	C1097.489868,292.953003 1069.662109,292.952118 1041.834473,292.949585 
	C1040.049683,292.949402 1038.264893,292.949554 1036.168457,292.949554 
	C1036.168457,275.480194 1036.168457,258.591919 1036.168457,241.045120 
	C1038.390015,241.045120 1040.335327,241.044708 1042.280518,241.045181 
	C1072.607666,241.052567 1102.935059,240.988052 1133.261475,241.141708 
	C1138.056885,241.166000 1139.943604,239.228821 1139.916626,234.682144 
	C1139.860596,225.184387 1139.873169,215.686111 1139.883789,206.188080 
	C1139.888550,201.905258 1138.092529,199.881378 1133.515991,199.943314 
	C1120.354492,200.121460 1107.188843,199.997726 1094.024902,200.000473 
	C1062.531250,200.007050 1031.037354,199.959259 999.544922,200.154953 
	C997.356689,200.168533 995.179749,202.005310 992.859863,203.924820 
M557.122375,254.557220 
	C550.378113,259.803406 543.633911,265.049591 536.882690,270.301178 
	C536.882690,266.293976 536.777039,261.544891 536.915039,256.802917 
	C537.031738,252.791595 535.362488,251.044922 531.279419,251.106339 
	C522.452393,251.239151 513.621460,251.087677 504.792999,251.156754 
	C498.942932,251.202545 497.907867,252.321442 497.907959,258.265808 
	C497.908875,333.229614 497.916107,408.193451 497.935242,483.157257 
	C497.936829,489.431580 499.168488,490.692139 505.570282,490.752258 
	C514.398621,490.835205 523.228516,490.831146 532.057251,490.778717 
	C538.461670,490.740692 539.885620,489.248230 539.889709,482.762665 
	C539.903870,460.440155 539.896606,438.117676 539.897461,415.795166 
	C539.897522,414.097809 539.897400,412.400482 539.897400,409.601562 
	C557.366638,427.457733 577.288696,434.266571 600.699829,431.071655 
	C628.407837,427.290314 648.300720,412.587006 659.498108,387.286774 
	C672.497253,357.915833 672.678345,328.005066 662.122131,297.419373 
	C646.266541,251.479462 593.671204,236.800003 557.122375,254.557220 
M1339.026245,345.565094 
	C1332.406860,353.355621 1329.406006,362.673431 1328.475952,372.576385 
	C1326.584961,392.713531 1333.624023,413.720673 1354.328369,424.065643 
	C1376.198486,434.993134 1398.682861,434.768036 1420.705444,424.434357 
	C1427.664429,421.168976 1433.701172,415.938721 1440.136719,411.623291 
	C1440.136719,415.100067 1440.046875,418.929932 1440.162964,422.753571 
	C1440.270386,426.295807 1441.892456,428.135162 1445.802612,428.066406 
	C1455.627930,427.893555 1465.463501,427.829224 1475.284668,428.095520 
	C1480.063599,428.225098 1481.385620,426.299896 1481.048340,421.836060 
	C1480.209717,410.739563 1479.216553,399.627441 1479.073364,388.511444 
	C1478.779541,365.693451 1479.154419,342.867249 1478.920776,320.047821 
	C1478.847900,312.936249 1478.066284,305.779968 1476.984497,298.740143 
	C1473.250244,274.441132 1459.281250,258.731293 1435.918823,251.564285 
	C1414.770874,245.076675 1393.418701,245.305511 1372.728882,252.937714 
	C1349.706299,261.430450 1336.278564,278.322510 1333.175049,302.959351 
	C1332.510986,308.231476 1333.250000,309.029053 1338.679077,309.047424 
	C1348.674072,309.081238 1358.670654,308.980560 1368.663208,309.141693 
	C1371.988281,309.195282 1373.537720,307.949097 1373.933472,304.677094 
	C1374.624756,298.964020 1377.563477,294.475525 1381.749512,290.598083 
	C1387.080566,285.660065 1393.723511,283.863251 1400.510620,283.431183 
	C1420.017700,282.189453 1436.122803,288.507538 1437.024048,312.029266 
	C1437.269287,318.430817 1437.137329,318.207184 1430.523071,319.017609 
	C1412.572998,321.216858 1394.562744,323.173767 1376.767822,326.312012 
	C1362.712402,328.790710 1349.528687,334.036011 1339.026245,345.565094 
M855.215942,251.571671 
	C827.735474,261.152100 810.140259,280.197510 801.703796,307.830475 
	C796.978210,323.308563 795.730225,339.164368 798.116760,355.178589 
	C800.865417,373.622375 807.086060,390.660034 820.111511,404.517578 
	C842.709595,428.559418 870.697998,436.216217 902.413025,429.741241 
	C928.513672,424.412506 948.070801,409.643097 959.869995,385.333954 
	C970.514648,363.403320 972.763428,340.351318 967.767151,316.761871 
	C960.783203,283.787720 942.407898,260.383270 909.088745,250.671631 
	C891.390686,245.513123 873.617371,246.393997 855.215942,251.571671 
M1188.567871,355.931061 
	C1197.029785,377.978027 1205.572388,399.994659 1213.883179,422.098450 
	C1215.477417,426.338623 1217.911743,428.126007 1222.411621,428.044464 
	C1232.235962,427.866455 1242.080566,427.690033 1251.888184,428.139465 
	C1257.438599,428.393768 1260.081665,426.006470 1261.806519,421.191864 
	C1264.778442,412.896698 1268.010010,404.693604 1271.188110,396.473358 
	C1288.938599,350.562164 1306.708862,304.658630 1324.463135,258.748932 
	C1326.788208,252.736420 1325.762085,251.170654 1319.458130,251.149704 
	C1309.630493,251.117020 1299.797363,251.326080 1289.976807,251.058975 
	C1284.729980,250.916260 1282.145508,253.320786 1280.495361,258.000305 
	C1269.765015,288.429260 1258.909546,318.814178 1248.074341,349.206085 
	C1244.939819,357.997894 1241.736572,366.765228 1238.142456,376.712555 
	C1236.862915,373.523621 1235.999512,371.586243 1235.297852,369.591949 
	C1222.162231,332.251831 1208.973267,294.930115 1196.015625,257.528229 
	C1194.356689,252.739777 1191.580933,251.024796 1186.830078,251.092834 
	C1177.670410,251.224045 1168.507568,251.122696 1159.346069,251.134140 
	C1150.285034,251.145447 1149.140137,252.888153 1152.475098,261.541504 
	C1152.594727,261.852142 1152.745728,262.150848 1152.864380,262.461823 
	C1164.657837,293.383026 1176.449707,324.304901 1188.567871,355.931061 
M1512.970703,401.500000 
	C1512.973145,408.327484 1513.095825,415.157837 1512.933838,421.981415 
	C1512.833130,426.228394 1514.626343,428.090607 1518.845337,428.056793 
	C1529.335815,427.972717 1539.827759,427.948090 1550.318115,428.025635 
	C1554.320312,428.055206 1556.126221,426.281342 1556.083862,422.315308 
	C1556.017944,416.154541 1556.058105,409.992584 1556.057983,403.831146 
	C1556.057495,334.389832 1556.059448,264.948547 1556.055786,195.507233 
	C1556.055420,188.742584 1555.427124,188.125504 1548.593872,188.125732 
	C1539.601440,188.126022 1530.609131,188.142227 1521.616699,188.155823 
	C1513.851196,188.167572 1512.971680,189.030884 1512.971558,196.672241 
	C1512.969727,264.614838 1512.969971,332.557404 1512.970703,401.500000 
M691.915710,395.500000 
	C691.928711,404.160583 692.091736,412.824585 691.895264,421.480408 
	C691.787292,426.235901 693.761719,428.098541 698.419617,428.017273 
	C707.244141,427.863190 716.073120,427.977356 724.900146,427.952667 
	C733.117737,427.929688 733.794312,427.271637 733.808716,419.240967 
	C733.855591,393.092834 733.737305,366.943085 734.023865,340.797699 
	C734.099915,333.862091 734.839783,326.822937 736.252808,320.034973 
	C739.581726,304.043488 749.141418,293.543640 765.489441,290.436249 
	C771.799988,289.236725 778.373901,289.239868 784.836609,289.097351 
	C788.253235,289.022034 789.760437,287.776642 789.760071,284.440948 
	C789.758911,274.114990 789.961853,263.783295 789.617859,253.469421 
	C789.567017,251.945343 787.097412,249.354111 785.559631,249.206390 
	C771.406372,247.846695 757.921265,250.219955 746.190552,258.698944 
	C741.195435,262.309448 736.922607,266.919250 732.332703,271.064880 
	C732.258850,270.915924 732.012085,270.647766 732.008179,270.376068 
	C731.950195,266.379578 731.928955,262.382599 731.890137,258.385773 
	C731.823303,251.510315 731.477844,251.169937 724.390015,251.156387 
	C716.229126,251.140793 708.068237,251.131622 699.907349,251.144470 
	C692.604370,251.155960 691.902466,251.865234 691.903015,259.095764 
	C691.906372,304.230499 691.911316,349.365265 691.915710,395.500000 
z"/>
<path fill="#85C0D4" opacity="1.000000" stroke="none" 
	d="
M557.447388,254.373779 
	C593.671204,236.800003 646.266541,251.479462 662.122131,297.419373 
	C672.678345,328.005066 672.497253,357.915833 659.498108,387.286774 
	C648.300720,412.587006 628.407837,427.290314 600.699829,431.071655 
	C577.288696,434.266571 557.366638,427.457733 539.897400,409.601562 
	C539.897400,412.400482 539.897522,414.097809 539.897461,415.795166 
	C539.896606,438.117676 539.903870,460.440155 539.889709,482.762665 
	C539.885620,489.248230 538.461670,490.740692 532.057251,490.778717 
	C523.228516,490.831146 514.398621,490.835205 505.570282,490.752258 
	C499.168488,490.692139 497.936829,489.431580 497.935242,483.157257 
	C497.916107,408.193451 497.908875,333.229614 497.907959,258.265808 
	C497.907867,252.321442 498.942932,251.202545 504.792999,251.156754 
	C513.621460,251.087677 522.452393,251.239151 531.279419,251.106339 
	C535.362488,251.044922 537.031738,252.791595 536.915039,256.802917 
	C536.777039,261.544891 536.882690,266.293976 536.882690,270.301178 
	C543.633911,265.049591 550.378113,259.803406 557.447388,254.373779 
M539.056824,337.630737 
	C539.093323,352.001099 541.141479,365.798401 549.882935,377.859924 
	C564.969360,398.676392 597.828003,399.950714 614.341187,380.289673 
	C630.374634,361.199829 631.741333,323.199463 617.147461,302.261414 
	C600.983582,279.070831 566.761292,278.654419 550.061096,301.472595 
	C542.395752,311.946075 539.900696,324.064880 539.056824,337.630737 
z"/>
<path fill="#A89DD3" opacity="1.000000" stroke="none" 
	d="
M992.997559,202.994263 
	C995.179749,202.005310 997.356689,200.168533 999.544922,200.154953 
	C1031.037354,199.959259 1062.531250,200.007050 1094.024902,200.000473 
	C1107.188843,199.997726 1120.354492,200.121460 1133.515991,199.943314 
	C1138.092529,199.881378 1139.888550,201.905258 1139.883789,206.188080 
	C1139.873169,215.686111 1139.860596,225.184387 1139.916626,234.682144 
	C1139.943604,239.228821 1138.056885,241.166000 1133.261475,241.141708 
	C1102.935059,240.988052 1072.607666,241.052567 1042.280518,241.045181 
	C1040.335327,241.044708 1038.390015,241.045120 1036.168457,241.045120 
	C1036.168457,258.591919 1036.168457,275.480194 1036.168457,292.949554 
	C1038.264893,292.949554 1040.049683,292.949402 1041.834473,292.949585 
	C1069.662109,292.952118 1097.489868,292.953003 1125.317505,292.958344 
	C1132.746094,292.959778 1133.128174,293.351959 1133.125610,300.992340 
	C1133.122803,309.490601 1133.114380,317.988861 1133.091309,326.487091 
	C1133.071777,333.666840 1132.722534,334.014709 1125.327759,334.018005 
	C1097.666748,334.030426 1070.005737,334.029022 1042.344727,334.032715 
	C1040.390991,334.032990 1038.437134,334.032745 1036.174805,334.032745 
	C1036.174805,351.820007 1036.174805,369.049469 1036.174805,386.983826 
	C1038.341064,386.983826 1040.278809,386.983887 1042.216553,386.983826 
	C1072.710327,386.982605 1103.204102,386.978607 1133.697876,386.982483 
	C1140.177246,386.983276 1140.931519,387.730042 1140.944092,394.114594 
	C1140.962280,403.279358 1140.854736,412.446136 1141.021973,421.608032 
	C1141.108032,426.327454 1139.150757,428.070892 1134.439331,428.059448 
	C1089.448730,427.949921 1044.457764,428.012146 999.467346,427.874847 
	C997.420593,427.868622 995.378235,426.429016 993.500854,424.991882 
	C993.777710,423.510254 993.983276,422.693817 993.983459,421.877350 
	C993.998413,350.309479 994.003235,278.741577 993.955994,207.173721 
	C993.955078,205.780350 993.330933,204.387421 992.997559,202.994263 
z"/>
<path fill="#A89DD3" opacity="1.000000" stroke="none" 
	d="
M1339.266724,345.303040 
	C1349.528687,334.036011 1362.712402,328.790710 1376.767822,326.312012 
	C1394.562744,323.173767 1412.572998,321.216858 1430.523071,319.017609 
	C1437.137329,318.207184 1437.269287,318.430817 1437.024048,312.029266 
	C1436.122803,288.507538 1420.017700,282.189453 1400.510620,283.431183 
	C1393.723511,283.863251 1387.080566,285.660065 1381.749512,290.598083 
	C1377.563477,294.475525 1374.624756,298.964020 1373.933472,304.677094 
	C1373.537720,307.949097 1371.988281,309.195282 1368.663208,309.141693 
	C1358.670654,308.980560 1348.674072,309.081238 1338.679077,309.047424 
	C1333.250000,309.029053 1332.510986,308.231476 1333.175049,302.959351 
	C1336.278564,278.322510 1349.706299,261.430450 1372.728882,252.937714 
	C1393.418701,245.305511 1414.770874,245.076675 1435.918823,251.564285 
	C1459.281250,258.731293 1473.250244,274.441132 1476.984497,298.740143 
	C1478.066284,305.779968 1478.847900,312.936249 1478.920776,320.047821 
	C1479.154419,342.867249 1478.779541,365.693451 1479.073364,388.511444 
	C1479.216553,399.627441 1480.209717,410.739563 1481.048340,421.836060 
	C1481.385620,426.299896 1480.063599,428.225098 1475.284668,428.095520 
	C1465.463501,427.829224 1455.627930,427.893555 1445.802612,428.066406 
	C1441.892456,428.135162 1440.270386,426.295807 1440.162964,422.753571 
	C1440.046875,418.929932 1440.136719,415.100067 1440.136719,411.623291 
	C1433.701172,415.938721 1427.664429,421.168976 1420.705444,424.434357 
	C1398.682861,434.768036 1376.198486,434.993134 1354.328369,424.065643 
	C1333.624023,413.720673 1326.584961,392.713531 1328.475952,372.576385 
	C1329.406006,362.673431 1332.406860,353.355621 1339.266724,345.303040 
M1426.579224,388.090271 
	C1438.881958,377.073944 1437.265625,362.643341 1436.829712,347.779968 
	C1423.627075,349.456787 1410.903687,350.564697 1398.398804,352.862335 
	C1391.524414,354.125397 1384.436890,356.413635 1378.467896,359.960358 
	C1366.503052,367.069916 1366.540771,385.833496 1377.874146,393.921875 
	C1390.084839,402.636383 1413.649414,400.030060 1426.579224,388.090271 
z"/>
<path fill="#85C0D4" opacity="1.000000" stroke="none" 
	d="
M855.588684,251.426834 
	C873.617371,246.393997 891.390686,245.513123 909.088745,250.671631 
	C942.407898,260.383270 960.783203,283.787720 967.767151,316.761871 
	C972.763428,340.351318 970.514648,363.403320 959.869995,385.333954 
	C948.070801,409.643097 928.513672,424.412506 902.413025,429.741241 
	C870.697998,436.216217 842.709595,428.559418 820.111511,404.517578 
	C807.086060,390.660034 800.865417,373.622375 798.116760,355.178589 
	C795.730225,339.164368 796.978210,323.308563 801.703796,307.830475 
	C810.140259,280.197510 827.735474,261.152100 855.588684,251.426834 
M895.037415,286.184052 
	C872.687134,281.510742 853.069824,291.072998 844.612122,311.132446 
	C838.568970,325.465210 837.488647,340.345642 840.663635,355.599976 
	C842.859192,366.148193 847.159485,375.779633 854.993164,383.047760 
	C874.410278,401.062988 905.687378,395.904358 918.242493,375.692841 
	C929.556335,357.479706 930.307434,338.024689 924.934021,318.053589 
	C920.791199,302.655914 911.301147,291.653381 895.037415,286.184052 
z"/>
<path fill="#95D8C3" opacity="1.000000" stroke="none" 
	d="
M338.024353,136.951691 
	C362.902985,146.163483 380.895721,163.268661 393.923676,185.960785 
	C396.299622,190.099167 398.075317,194.582138 400.090393,199.733887 
	C400.039612,201.060684 399.977295,201.563995 400.021027,202.057892 
	C400.519226,207.683502 404.053406,213.788315 397.424957,218.289886 
	C397.208954,218.436584 397.213043,218.901215 397.105377,219.214493 
	C395.447479,224.037933 387.725006,225.707321 384.359955,221.992035 
	C382.630859,220.083008 381.031189,218.936554 378.654877,221.552155 
	C376.873840,223.512466 374.567200,225.140823 372.220276,226.409622 
	C368.008179,228.686798 367.101776,228.083344 367.019928,223.358765 
	C366.934753,218.440414 367.000946,213.519455 367.000946,207.004990 
	C363.503418,209.583221 361.234711,211.255630 358.534882,213.245834 
	C356.781158,207.214310 355.054199,201.725555 353.619110,196.161530 
	C352.823700,193.077682 351.248047,192.011139 348.026215,191.833176 
	C345.753326,191.707611 343.577728,189.994659 341.339325,189.035706 
	C336.155487,186.814926 332.236633,181.774338 325.924866,182.096634 
	C325.942749,182.083603 325.936218,182.096893 325.926971,181.741104 
	C323.460602,179.035950 321.341248,175.286499 318.483673,174.597122 
	C309.556213,172.443344 300.364349,170.315842 291.248901,170.198120 
	C254.316559,169.721130 217.374435,170.019028 180.435959,169.989990 
	C166.925537,169.979370 153.380814,170.843124 140.207321,166.235794 
	C137.085114,165.143829 131.705536,164.910461 129.890381,166.760529 
	C125.073692,171.669876 120.340500,176.655182 115.152374,181.199005 
	C114.974823,181.354492 115.085045,181.838562 114.880676,182.393555 
	C114.160927,182.795868 113.621635,182.974106 112.859665,182.869019 
	C105.593170,181.293152 101.505020,187.444275 95.739304,189.414642 
	C94.607643,189.801376 93.857491,191.663467 93.189087,192.976318 
	C91.497665,196.298538 90.203972,199.846390 88.291428,203.027588 
	C85.272957,208.048309 81.845093,212.821381 78.659111,217.743698 
	C77.347725,219.769775 76.214348,221.911087 74.647446,224.039124 
	C73.049484,225.220856 71.804077,226.363480 70.584175,227.482712 
	C68.371323,226.081757 65.612007,224.955612 63.746639,222.983780 
	C61.779667,220.904556 60.746208,217.965149 59.129662,215.517258 
	C58.657803,214.802734 57.628361,214.394958 56.783115,213.998917 
	C52.684151,212.078293 50.813797,205.452881 53.600513,201.964539 
	C55.533936,199.544327 58.309200,197.680725 59.801220,195.053314 
	C61.636467,191.821487 63.694134,189.928131 67.527069,189.928482 
	C70.202850,189.928711 71.014175,187.520691 69.121460,186.436859 
	C62.617683,182.712509 64.888672,176.576843 67.480225,173.703262 
	C70.593620,170.251022 76.522858,169.316162 81.298203,167.459305 
	C81.506233,167.378433 82.195251,169.403366 82.955917,169.707321 
	C85.006523,170.526703 87.990601,172.083511 89.190697,171.267883 
	C91.202599,169.900497 93.279404,167.256058 90.652016,164.102875 
	C86.820488,159.504562 85.201294,154.507690 89.150314,148.692657 
	C91.011887,143.668915 95.537361,142.824829 99.415588,141.350998 
	C108.143181,138.034302 117.009995,135.085281 125.766106,131.840744 
	C126.996338,131.384888 127.922646,130.108826 128.989624,129.212402 
	C129.432953,129.133286 129.876282,129.054153 130.923279,129.272522 
	C136.454285,130.046677 141.400375,130.384781 146.302444,131.048141 
	C149.629807,131.498428 151.195328,129.960846 151.979416,127.055962 
	C152.429581,127.038635 152.879761,127.021309 153.915009,127.283188 
	C159.311462,129.797150 164.205750,128.226654 169.124374,128.110962 
	C182.743820,127.790657 196.376160,127.933990 210.002563,128.022430 
	C219.606232,128.084778 229.213333,128.221725 238.810394,128.563889 
	C257.848175,129.242630 276.968964,124.739174 296.004059,131.384186 
	C302.505768,133.653885 310.665710,131.173447 318.068024,130.863358 
	C318.500397,130.879562 318.932800,130.895752 319.747742,131.335175 
	C324.093140,132.826279 328.055908,133.894135 332.018707,134.961990 
	C332.464661,134.986649 332.910583,135.011307 333.726044,135.443512 
	C335.405151,136.217957 336.714752,136.584824 338.024353,136.951691 
z"/>
<path fill="#96D7C2" opacity="1.000000" stroke="none" 
	d="
M278.205139,492.287781 
	C274.793915,495.610077 271.538055,499.111786 267.944763,502.223877 
	C251.866959,516.148560 235.661591,529.925842 219.568024,543.832458 
	C212.373352,550.049377 204.497040,553.091309 195.273804,549.051819 
	C186.207108,545.080872 183.063614,537.401001 183.058456,528.025330 
	C183.050766,514.038391 183.038071,500.051422 183.027924,486.064453 
	C183.026627,484.280823 183.027756,482.497192 183.027756,480.045563 
	C174.689697,480.045563 166.915482,479.925415 159.146179,480.069794 
	C141.145584,480.404297 123.616760,477.602539 106.944702,470.961182 
	C71.731346,456.933838 47.535793,432.231781 35.767559,395.817108 
	C30.614420,379.871643 28.092304,363.548920 27.930759,346.829071 
	C27.675167,320.375244 27.345728,293.921570 27.250257,267.467102 
	C27.227581,261.183624 28.008299,254.897232 28.980209,248.558228 
	C30.027269,253.259872 30.796907,258.007202 30.935848,262.772949 
	C31.164261,270.607605 30.972822,278.454163 30.979176,286.295715 
	C30.985043,293.534851 31.015575,300.774017 31.040791,308.013153 
	C31.049482,310.508789 31.143785,313.006073 31.080389,315.499634 
	C30.842129,324.871094 30.429892,334.240021 30.334230,343.612488 
	C30.279219,349.002411 29.740429,354.686127 31.236742,359.694641 
	C32.348534,363.416046 34.207016,366.504120 33.441822,370.781708 
	C32.992664,373.292542 34.527481,376.234711 35.438770,378.890625 
	C36.324638,381.472443 39.153984,384.811798 38.343136,386.294250 
	C35.485847,391.518097 39.215164,394.682892 40.762074,398.616272 
	C42.960960,404.207336 44.649921,410.024231 47.195606,415.444611 
	C48.848404,418.963776 49.528614,423.780670 54.562668,424.600159 
	C56.928936,424.985352 59.446751,425.127289 61.793728,424.747742 
	C64.089020,424.376495 65.765198,424.091339 65.985970,427.066620 
	C66.141281,429.159668 67.122307,431.585510 66.387253,433.277374 
	C64.097519,438.547577 64.604073,441.677429 69.201080,445.716400 
	C71.796822,447.997131 74.288330,448.533569 77.198929,446.256042 
	C80.012451,444.054413 80.607758,441.704865 78.804276,438.478882 
	C76.067604,433.583649 73.550270,428.561646 71.058228,423.534790 
	C67.632095,416.623688 71.439323,406.377106 78.506325,403.865845 
	C80.337479,403.215149 82.524193,403.565033 84.580963,403.453522 
	C82.613762,396.838715 82.267258,397.253387 76.586868,396.672699 
	C73.320152,396.338745 67.830544,393.787170 67.626205,391.794495 
	C66.913261,384.842133 66.561333,377.106476 69.027832,370.830048 
	C70.744583,366.461548 70.964066,362.245087 72.257629,357.998840 
	C72.688522,357.993683 72.860870,357.990936 73.282066,358.290405 
	C74.026489,361.701935 74.455124,364.823639 75.028442,367.918549 
	C78.886185,388.743774 88.703766,405.958008 106.007553,418.533569 
	C120.823463,429.301086 137.891190,433.291626 155.759369,433.904724 
	C171.565765,434.447113 187.404129,434.014832 203.227798,434.110321 
	C214.821259,434.180237 222.352890,440.152435 223.942413,451.447968 
	C224.955261,458.645447 224.680649,466.025452 224.954575,473.324646 
	C225.017899,475.012238 224.963898,476.704193 224.963898,479.061676 
	C226.633499,478.101807 227.425064,477.796051 228.032562,477.275482 
	C240.402176,466.675354 252.743973,456.042755 265.106567,445.434387 
	C270.411713,440.882111 275.668457,436.224945 282.932953,435.541321 
	C282.144989,436.529877 281.428436,437.194092 280.705017,437.850677 
	C276.028015,442.095764 276.780792,446.496826 282.911499,447.925110 
	C285.834747,448.606140 289.475403,448.130066 292.278076,446.954742 
	C296.455231,445.202911 299.339905,445.919922 301.682220,449.490112 
	C303.805206,452.725952 302.911438,458.849060 299.936096,460.598602 
	C294.218323,463.960663 288.335632,467.041901 282.607574,470.387238 
	C281.563324,470.997131 280.388763,472.216766 280.200409,473.313904 
	C279.420258,477.858307 277.354401,477.492859 274.395264,475.265533 
	C273.672028,474.721161 272.640137,474.586884 271.432343,474.148834 
	C271.101868,476.628784 271.599670,479.547546 270.408661,480.662842 
	C265.609924,485.156494 267.297852,490.729187 266.598816,495.991455 
	C259.567230,494.388062 250.580704,499.358246 250.744308,504.275513 
	C253.083939,503.851593 255.432907,503.080078 257.784698,503.071350 
	C262.790894,503.052734 266.015289,501.082001 267.413452,496.000793 
	C271.285858,494.762848 274.745483,493.525299 278.205139,492.287781 
z"/>
<path fill="#A89DD2" opacity="1.000000" stroke="none" 
	d="
M1188.404785,355.578888 
	C1176.449707,324.304901 1164.657837,293.383026 1152.864380,262.461823 
	C1152.745728,262.150848 1152.594727,261.852142 1152.475098,261.541504 
	C1149.140137,252.888153 1150.285034,251.145447 1159.346069,251.134140 
	C1168.507568,251.122696 1177.670410,251.224045 1186.830078,251.092834 
	C1191.580933,251.024796 1194.356689,252.739777 1196.015625,257.528229 
	C1208.973267,294.930115 1222.162231,332.251831 1235.297852,369.591949 
	C1235.999512,371.586243 1236.862915,373.523621 1238.142456,376.712555 
	C1241.736572,366.765228 1244.939819,357.997894 1248.074341,349.206085 
	C1258.909546,318.814178 1269.765015,288.429260 1280.495361,258.000305 
	C1282.145508,253.320786 1284.729980,250.916260 1289.976807,251.058975 
	C1299.797363,251.326080 1309.630493,251.117020 1319.458130,251.149704 
	C1325.762085,251.170654 1326.788208,252.736420 1324.463135,258.748932 
	C1306.708862,304.658630 1288.938599,350.562164 1271.188110,396.473358 
	C1268.010010,404.693604 1264.778442,412.896698 1261.806519,421.191864 
	C1260.081665,426.006470 1257.438599,428.393768 1251.888184,428.139465 
	C1242.080566,427.690033 1232.235962,427.866455 1222.411621,428.044464 
	C1217.911743,428.126007 1215.477417,426.338623 1213.883179,422.098450 
	C1205.572388,399.994659 1197.029785,377.978027 1188.404785,355.578888 
z"/>
<path fill="#A89CD2" opacity="1.000000" stroke="none" 
	d="
M1512.970215,401.000000 
	C1512.969971,332.557404 1512.969727,264.614838 1512.971558,196.672241 
	C1512.971680,189.030884 1513.851196,188.167572 1521.616699,188.155823 
	C1530.609131,188.142227 1539.601440,188.126022 1548.593872,188.125732 
	C1555.427124,188.125504 1556.055420,188.742584 1556.055786,195.507233 
	C1556.059448,264.948547 1556.057495,334.389832 1556.057983,403.831146 
	C1556.058105,409.992584 1556.017944,416.154541 1556.083862,422.315308 
	C1556.126221,426.281342 1554.320312,428.055206 1550.318115,428.025635 
	C1539.827759,427.948090 1529.335815,427.972717 1518.845337,428.056793 
	C1514.626343,428.090607 1512.833130,426.228394 1512.933838,421.981415 
	C1513.095825,415.157837 1512.973145,408.327484 1512.970215,401.000000 
z"/>
<path fill="#95D8C3" opacity="1.000000" stroke="none" 
	d="
M266.998779,495.998779 
	C267.297852,490.729187 265.609924,485.156494 270.408661,480.662842 
	C271.599670,479.547546 271.101868,476.628784 271.432343,474.148834 
	C272.640137,474.586884 273.672028,474.721161 274.395264,475.265533 
	C277.354401,477.492859 279.420258,477.858307 280.200409,473.313904 
	C280.388763,472.216766 281.563324,470.997131 282.607574,470.387238 
	C288.335632,467.041901 294.218323,463.960663 299.936096,460.598602 
	C302.911438,458.849060 303.805206,452.725952 301.682220,449.490112 
	C299.339905,445.919922 296.455231,445.202911 292.278076,446.954742 
	C289.475403,448.130066 285.834747,448.606140 282.911499,447.925110 
	C276.780792,446.496826 276.028015,442.095764 280.705017,437.850677 
	C281.428436,437.194092 282.144989,436.529877 283.298615,435.449402 
	C284.483826,435.011292 285.235077,434.992950 286.218353,435.252502 
	C288.061218,436.270905 289.612518,437.224182 291.298523,437.696259 
	C293.260406,438.245575 295.368469,438.747559 297.362396,438.597321 
	C300.398071,438.368591 303.370056,437.306946 306.406128,437.066528 
	C309.944305,436.786285 313.233521,436.733795 315.293274,432.975983 
	C315.899506,431.869995 318.078705,431.580444 319.576447,431.022583 
	C320.921722,430.521545 322.525940,430.465363 323.658722,429.690643 
	C327.277496,427.215729 330.844513,424.633820 334.195770,421.813141 
	C335.731781,420.520264 336.717590,418.573761 337.960602,416.935577 
	C337.968262,416.947449 337.928833,416.927032 338.383270,416.949432 
	C343.854553,417.232666 349.007019,417.921570 350.752258,411.176147 
	C350.920654,410.525269 353.045258,410.066956 354.264618,410.060577 
	C357.855408,410.041687 359.628937,409.217377 358.236664,405.014893 
	C356.277374,399.100891 357.498535,394.025757 363.426880,390.783661 
	C365.417847,389.694885 367.290344,388.389435 369.217010,387.183014 
	C368.275391,386.681274 367.333771,386.179535 366.392151,385.677795 
	C366.392151,383.409058 366.392151,381.140320 366.392151,378.871582 
	C368.553833,378.920227 370.916046,378.451111 372.812164,379.185425 
	C374.261749,379.746857 375.533966,381.677094 376.130981,383.279419 
	C376.760498,384.968933 376.630341,386.995667 376.578064,388.867950 
	C376.535950,390.375702 376.115326,391.872894 375.862640,393.374756 
	C376.353241,393.444031 376.843811,393.513275 377.334412,393.582520 
	C380.577301,388.649445 389.869476,386.555084 384.804321,378.560669 
	C387.021912,376.877899 390.534302,375.366608 390.472412,374.019592 
	C390.343170,371.208282 388.038940,366.005463 387.129303,366.110809 
	C378.961823,367.056854 377.340912,361.856781 376.415070,355.836182 
	C376.079315,353.652588 375.818909,351.178253 376.519165,349.186401 
	C377.360565,346.793091 376.809814,339.004425 374.699554,337.595490 
	C374.003815,337.130951 372.736572,337.522339 371.606323,337.522339 
	C372.056213,339.606567 372.377441,341.094849 372.698700,342.583130 
	C372.080322,342.719666 371.461914,342.856201 370.843536,342.992737 
	C370.562347,341.293121 370.043488,339.594391 370.036987,337.893677 
	C369.975037,321.732086 369.901062,305.569092 370.076416,289.409149 
	C370.115479,285.808319 371.119232,282.217987 371.780670,277.968781 
	C366.964661,273.638855 370.637024,267.269592 371.701263,262.248108 
	C372.859009,256.785370 376.539551,252.165894 372.504181,246.333176 
	C371.765564,245.265549 372.909790,241.412094 374.226044,240.655273 
	C380.987030,236.767761 387.885498,232.940063 395.148071,230.173096 
	C399.343536,228.574677 403.836487,225.656036 408.862885,227.995468 
	C408.934326,228.431946 409.005768,228.868439 408.759399,229.870911 
	C408.012115,234.997177 407.330200,239.553787 407.263916,244.119339 
	C407.232697,246.269165 408.650421,248.400879 408.942352,250.602997 
	C409.483948,254.688629 409.458160,258.853424 410.070282,262.924866 
	C411.182404,270.321899 410.882477,270.806030 401.743164,270.483154 
	C403.780914,272.656586 404.985840,273.874634 406.113525,275.160431 
	C407.758209,277.035706 410.423676,278.797882 410.739014,280.896088 
	C411.421997,285.440735 410.944366,290.169189 410.843109,294.820312 
	C410.646851,303.835388 410.389496,312.849213 410.144470,321.863190 
	C409.963623,328.515503 410.113159,335.201569 409.467621,341.809265 
	C408.866364,347.963470 407.033966,353.998779 406.454681,360.153320 
	C406.036591,364.595276 406.637329,369.161926 407.093750,373.641357 
	C407.247375,375.148773 408.355438,376.558868 409.027283,378.013458 
	C409.013763,378.458466 409.000244,378.903503 408.533051,379.683167 
	C403.154663,382.132416 403.639069,387.000519 403.656525,390.755585 
	C403.674927,394.704895 402.410400,395.790527 398.660400,395.929932 
	C398.549103,394.630707 398.448608,393.457886 398.276062,391.443970 
	C396.437439,392.423218 394.467773,392.796021 393.876068,393.904419 
	C391.313873,398.703979 388.377350,400.337524 383.082336,397.429260 
	C381.138458,396.361542 376.708984,395.423248 376.360413,399.592072 
	C376.082825,402.911835 377.739288,406.393311 378.507446,409.676056 
	C385.278656,408.530090 390.802338,407.595245 396.326050,406.660400 
	C396.577606,407.173920 396.829132,407.687408 397.080658,408.200897 
	C395.164825,411.189758 393.630615,414.536072 391.244171,417.084167 
	C387.613373,420.960938 383.187500,424.090210 379.525543,427.942169 
	C378.132843,429.407104 377.497925,431.950317 377.282867,434.079407 
	C377.053650,436.348358 377.729675,438.708771 378.010468,441.029236 
	C377.942261,441.361023 377.770721,441.625824 376.893127,441.919830 
	C371.414124,443.209351 367.700439,445.586151 367.056427,451.087555 
	C367.056427,451.087555 367.001404,451.037048 366.799866,451.132141 
	C366.402374,451.501434 366.206421,451.775635 366.010498,452.049866 
	C365.565277,452.359711 365.120087,452.669556 363.954468,452.996368 
	C357.628693,452.209229 352.291351,451.874268 350.676880,459.241913 
	C350.540649,459.863617 349.505737,460.401306 348.780975,460.762726 
	C344.225281,463.034607 339.771332,465.595306 335.029388,467.387421 
	C329.170197,469.601807 323.102478,471.304382 317.050262,472.954590 
	C312.741333,474.129486 307.653259,473.826691 304.126373,476.081451 
	C300.940216,478.118408 298.929108,477.952423 296.124878,476.604462 
	C293.043518,475.123291 290.429016,476.147095 288.852600,478.862518 
	C287.557159,481.093872 286.972504,483.737854 286.072784,486.198944 
	C285.560883,486.733887 285.049011,487.268860 283.888916,487.902832 
	C280.379639,487.960388 278.257660,488.822937 278.157196,492.158020 
	C278.157196,492.158020 278.187012,492.219513 278.196045,492.253632 
	C274.745483,493.525299 271.285858,494.762848 267.413116,496.000183 
	C267.000000,496.000000 266.998779,495.998779 266.998779,495.998779 
M282.977722,475.755493 
	C283.821777,475.601746 284.665802,475.447998 285.509857,475.294250 
	C285.334930,474.831207 285.160004,474.368164 284.985046,473.905121 
	C284.159149,474.374634 283.333282,474.844147 282.977722,475.755493 
z"/>
<path fill="#85C0D4" opacity="1.000000" stroke="none" 
	d="
M691.915649,395.000000 
	C691.911316,349.365265 691.906372,304.230499 691.903015,259.095764 
	C691.902466,251.865234 692.604370,251.155960 699.907349,251.144470 
	C708.068237,251.131622 716.229126,251.140793 724.390015,251.156387 
	C731.477844,251.169937 731.823303,251.510315 731.890137,258.385773 
	C731.928955,262.382599 731.950195,266.379578 732.008179,270.376068 
	C732.012085,270.647766 732.258850,270.915924 732.332703,271.064880 
	C736.922607,266.919250 741.195435,262.309448 746.190552,258.698944 
	C757.921265,250.219955 771.406372,247.846695 785.559631,249.206390 
	C787.097412,249.354111 789.567017,251.945343 789.617859,253.469421 
	C789.961853,263.783295 789.758911,274.114990 789.760071,284.440948 
	C789.760437,287.776642 788.253235,289.022034 784.836609,289.097351 
	C778.373901,289.239868 771.799988,289.236725 765.489441,290.436249 
	C749.141418,293.543640 739.581726,304.043488 736.252808,320.034973 
	C734.839783,326.822937 734.099915,333.862091 734.023865,340.797699 
	C733.737305,366.943085 733.855591,393.092834 733.808716,419.240967 
	C733.794312,427.271637 733.117737,427.929688 724.900146,427.952667 
	C716.073120,427.977356 707.244141,427.863190 698.419617,428.017273 
	C693.761719,428.098541 691.787292,426.235901 691.895264,421.480408 
	C692.091736,412.824585 691.928711,404.160583 691.915649,395.000000 
z"/>
<path fill="#94D7C1" opacity="1.000000" stroke="none" 
	d="
M71.999084,358.001221 
	C70.964066,362.245087 70.744583,366.461548 69.027832,370.830048 
	C66.561333,377.106476 66.913261,384.842133 67.626205,391.794495 
	C67.830544,393.787170 73.320152,396.338745 76.586868,396.672699 
	C82.267258,397.253387 82.613762,396.838715 84.580963,403.453522 
	C82.524193,403.565033 80.337479,403.215149 78.506325,403.865845 
	C71.439323,406.377106 67.632095,416.623688 71.058228,423.534790 
	C73.550270,428.561646 76.067604,433.583649 78.804276,438.478882 
	C80.607758,441.704865 80.012451,444.054413 77.198929,446.256042 
	C74.288330,448.533569 71.796822,447.997131 69.201080,445.716400 
	C64.604073,441.677429 64.097519,438.547577 66.387253,433.277374 
	C67.122307,431.585510 66.141281,429.159668 65.985970,427.066620 
	C65.765198,424.091339 64.089020,424.376495 61.793728,424.747742 
	C59.446751,425.127289 56.928936,424.985352 54.562668,424.600159 
	C49.528614,423.780670 48.848404,418.963776 47.195606,415.444611 
	C44.649921,410.024231 42.960960,404.207336 40.762074,398.616272 
	C39.215164,394.682892 35.485847,391.518097 38.343136,386.294250 
	C39.153984,384.811798 36.324638,381.472443 35.438770,378.890625 
	C34.527481,376.234711 32.992664,373.292542 33.441822,370.781708 
	C34.207016,366.504120 32.348534,363.416046 31.236742,359.694641 
	C29.740429,354.686127 30.279219,349.002411 30.334230,343.612488 
	C30.429892,334.240021 30.842129,324.871094 31.080389,315.499634 
	C31.143785,313.006073 31.049482,310.508789 31.040791,308.013153 
	C31.015575,300.774017 30.985043,293.534851 30.979176,286.295715 
	C30.972822,278.454163 31.164261,270.607605 30.935848,262.772949 
	C30.796907,258.007202 30.027269,253.259872 29.243412,248.234833 
	C28.973253,246.903656 29.000626,245.841904 29.435871,244.321167 
	C30.220776,243.554092 30.877794,243.287613 30.930723,242.931381 
	C31.370510,239.971344 30.937853,236.606552 32.215561,234.102142 
	C35.077152,228.493225 35.598904,222.594833 36.347755,216.587143 
	C36.446728,215.793137 39.774128,214.903717 41.563503,214.986328 
	C42.841213,215.045303 44.047203,216.657791 45.340870,217.618408 
	C47.233120,213.403809 47.484509,210.314896 42.059502,209.311890 
	C41.276367,209.167099 40.252323,206.610565 40.551311,205.494705 
	C40.793549,204.590652 42.800419,203.876419 44.128090,203.625397 
	C45.469364,203.371826 46.937988,203.791794 48.742485,203.951340 
	C49.061417,200.885208 49.610985,198.307693 49.499210,195.759186 
	C49.419949,193.951874 48.447422,192.183746 47.873611,190.398117 
	C49.649136,190.223343 51.449646,190.174805 53.191525,189.830063 
	C54.381393,189.594543 55.489445,188.945663 56.634079,188.481613 
	C56.108231,187.214996 55.867893,185.672913 54.981499,184.754135 
	C53.961765,183.697189 52.370621,183.191513 49.960194,181.854141 
	C56.140976,175.860275 62.910671,171.263474 66.925262,164.922409 
	C72.398651,156.277176 80.827927,153.135895 89.000000,149.000000 
	C85.201294,154.507690 86.820488,159.504562 90.652016,164.102875 
	C93.279404,167.256058 91.202599,169.900497 89.190697,171.267883 
	C87.990601,172.083511 85.006523,170.526703 82.955917,169.707321 
	C82.195251,169.403366 81.506233,167.378433 81.298203,167.459305 
	C76.522858,169.316162 70.593620,170.251022 67.480225,173.703262 
	C64.888672,176.576843 62.617683,182.712509 69.121460,186.436859 
	C71.014175,187.520691 70.202850,189.928711 67.527069,189.928482 
	C63.694134,189.928131 61.636467,191.821487 59.801220,195.053314 
	C58.309200,197.680725 55.533936,199.544327 53.600513,201.964539 
	C50.813797,205.452881 52.684151,212.078293 56.783115,213.998917 
	C57.628361,214.394958 58.657803,214.802734 59.129662,215.517258 
	C60.746208,217.965149 61.779667,220.904556 63.746639,222.983780 
	C65.612007,224.955612 68.371323,226.081757 70.584175,227.482712 
	C71.804077,226.363480 73.049484,225.220856 74.647141,224.416290 
	C74.332932,226.502899 73.666466,228.251450 72.560928,230.000000 
	C63.676159,229.900177 54.577133,233.348938 47.545959,225.481262 
	C47.403149,225.321457 46.925140,225.461197 46.618927,225.461197 
	C42.680950,232.768951 42.951664,240.716095 48.494709,247.202271 
	C48.898888,245.634598 49.257362,244.244217 49.600006,242.915222 
	C50.821079,246.455597 51.689144,248.972473 52.798286,252.188309 
	C51.214794,252.332565 49.603668,252.910431 48.285309,252.514221 
	C45.039066,251.538559 43.963676,253.310043 44.537071,255.729752 
	C45.633789,260.357849 43.674061,261.837891 39.495407,262.105225 
	C38.671631,262.157928 37.918060,263.307678 37.132107,263.951508 
	C37.887119,264.625000 38.652687,265.882538 39.395302,265.869110 
	C42.346508,265.815796 43.463806,267.296387 44.123554,269.928223 
	C44.348282,270.824677 45.789089,271.586548 46.830662,272.079254 
	C52.030987,274.539185 54.343552,279.341095 51.693256,283.141418 
	C50.658806,284.624756 48.595470,285.390564 47.000759,286.483185 
	C47.171238,286.986145 47.341713,287.489105 47.512192,287.992065 
	C51.081322,287.112549 54.650452,286.233002 58.192589,285.360138 
	C59.271057,289.650574 58.968933,290.228760 55.567036,291.977631 
	C54.574406,292.487976 53.155796,293.547638 53.150230,294.363800 
	C53.124836,298.088196 53.532871,301.815552 53.784451,305.531799 
	C56.253204,305.395691 57.826115,305.308960 59.809330,305.199615 
	C60.080933,309.938354 58.975266,315.286316 65.698105,316.012970 
	C66.197823,316.066986 66.569038,317.309814 67.000000,318.333313 
	C67.000000,319.111115 67.000000,319.555542 66.773895,320.145264 
	C66.698517,320.860382 66.849258,321.430176 67.000000,322.375000 
	C67.000000,323.500000 67.000000,324.250000 66.728722,325.230774 
	C63.188931,329.182373 60.546413,333.963226 56.493881,336.356506 
	C51.395565,339.367371 51.144093,343.566833 51.158955,348.050629 
	C51.170307,351.474304 52.421982,354.670197 57.163952,354.075775 
	C58.372669,353.924286 60.130955,354.257294 60.886196,355.067413 
	C64.048981,358.460022 68.023186,358.090515 71.999084,358.001221 
M36.183876,251.079865 
	C36.301952,252.278778 36.420029,253.477707 36.654175,255.855194 
	C39.052059,252.849228 40.098415,251.248398 36.183876,251.079865 
z"/>
<path fill="#96D7C2" opacity="1.000000" stroke="none" 
	d="
M408.888397,227.597992 
	C403.836487,225.656036 399.343536,228.574677 395.148071,230.173096 
	C387.885498,232.940063 380.987030,236.767761 374.226044,240.655273 
	C372.909790,241.412094 371.765564,245.265549 372.504181,246.333176 
	C376.539551,252.165894 372.859009,256.785370 371.701263,262.248108 
	C370.637024,267.269592 366.964661,273.638855 371.780670,277.968781 
	C371.119232,282.217987 370.115479,285.808319 370.076416,289.409149 
	C369.901062,305.569092 369.975037,321.732086 370.036987,337.893677 
	C370.043488,339.594391 370.562347,341.293121 370.843536,342.992737 
	C371.461914,342.856201 372.080322,342.719666 372.698700,342.583130 
	C372.377441,341.094849 372.056213,339.606567 371.606323,337.522339 
	C372.736572,337.522339 374.003815,337.130951 374.699554,337.595490 
	C376.809814,339.004425 377.360565,346.793091 376.519165,349.186401 
	C375.818909,351.178253 376.079315,353.652588 376.415070,355.836182 
	C377.340912,361.856781 378.961823,367.056854 387.129303,366.110809 
	C388.038940,366.005463 390.343170,371.208282 390.472412,374.019592 
	C390.534302,375.366608 387.021912,376.877899 384.804321,378.560669 
	C389.869476,386.555084 380.577301,388.649445 377.334412,393.582520 
	C376.843811,393.513275 376.353241,393.444031 375.862640,393.374756 
	C376.115326,391.872894 376.535950,390.375702 376.578064,388.867950 
	C376.630341,386.995667 376.760498,384.968933 376.130981,383.279419 
	C375.533966,381.677094 374.261749,379.746857 372.812164,379.185425 
	C370.916046,378.451111 368.553833,378.920227 366.392151,378.871582 
	C366.392151,381.140320 366.392151,383.409058 366.392151,385.677795 
	C367.333771,386.179535 368.275391,386.681274 369.217010,387.183014 
	C367.290344,388.389435 365.417847,389.694885 363.426880,390.783661 
	C357.498535,394.025757 356.277374,399.100891 358.236664,405.014893 
	C359.628937,409.217377 357.855408,410.041687 354.264618,410.060577 
	C353.045258,410.066956 350.920654,410.525269 350.752258,411.176147 
	C349.007019,417.921570 343.854553,417.232666 338.546021,416.661743 
	C342.340729,411.990723 346.910095,407.984985 350.426086,403.204529 
	C362.687134,386.534332 367.301605,367.188446 367.833221,346.973053 
	C368.458405,323.197876 368.256683,299.393311 367.995911,275.606049 
	C367.883392,265.343994 367.376221,254.997498 365.888733,244.859497 
	C363.501923,228.591873 358.747711,212.878448 347.209442,200.558624 
	C340.823151,193.739761 333.053223,188.216782 325.906982,182.109665 
	C332.236633,181.774338 336.155487,186.814926 341.339325,189.035706 
	C343.577728,189.994659 345.753326,191.707611 348.026215,191.833176 
	C351.248047,192.011139 352.823700,193.077682 353.619110,196.161530 
	C355.054199,201.725555 356.781158,207.214310 358.534882,213.245834 
	C361.234711,211.255630 363.503418,209.583221 367.000946,207.004990 
	C367.000946,213.519455 366.934753,218.440414 367.019928,223.358765 
	C367.101776,228.083344 368.008179,228.686798 372.220276,226.409622 
	C374.567200,225.140823 376.873840,223.512466 378.654877,221.552155 
	C381.031189,218.936554 382.630859,220.083008 384.359955,221.992035 
	C387.725006,225.707321 395.447479,224.037933 397.105377,219.214493 
	C397.213043,218.901215 397.208954,218.436584 397.424957,218.289886 
	C404.053406,213.788315 400.519226,207.683502 400.021027,202.057892 
	C399.977295,201.563995 400.039612,201.060684 400.094788,200.096344 
	C402.379578,205.602692 404.773224,211.523758 406.802246,217.567230 
	C407.842438,220.665421 408.230896,223.982422 408.888397,227.597992 
M374.202484,231.609100 
	C374.206635,231.214432 374.210815,230.819778 374.214966,230.425110 
	C374.051208,230.423599 373.745148,230.411133 373.744293,230.422165 
	C373.714050,230.814896 373.712341,231.209808 374.202484,231.609100 
z"/>
<path fill="#96D7C2" opacity="1.000000" stroke="none" 
	d="
M89.150314,148.692657 
	C80.827927,153.135895 72.398651,156.277176 66.925262,164.922409 
	C62.910671,171.263474 56.140976,175.860275 49.960194,181.854141 
	C52.370621,183.191513 53.961765,183.697189 54.981499,184.754135 
	C55.867893,185.672913 56.108231,187.214996 56.634079,188.481613 
	C55.489445,188.945663 54.381393,189.594543 53.191525,189.830063 
	C51.449646,190.174805 49.649136,190.223343 47.873611,190.398117 
	C48.447422,192.183746 49.419949,193.951874 49.499210,195.759186 
	C49.610985,198.307693 49.061417,200.885208 48.742485,203.951340 
	C46.937988,203.791794 45.469364,203.371826 44.128090,203.625397 
	C42.800419,203.876419 40.793549,204.590652 40.551311,205.494705 
	C40.252323,206.610565 41.276367,209.167099 42.059502,209.311890 
	C47.484509,210.314896 47.233120,213.403809 45.340870,217.618408 
	C44.047203,216.657791 42.841213,215.045303 41.563503,214.986328 
	C39.774128,214.903717 36.446728,215.793137 36.347755,216.587143 
	C35.598904,222.594833 35.077152,228.493225 32.215561,234.102142 
	C30.937853,236.606552 31.370510,239.971344 30.930723,242.931381 
	C30.877794,243.287613 30.220776,243.554092 29.508484,243.928497 
	C30.525709,228.709259 33.758003,213.855347 39.779034,199.706696 
	C55.312351,163.205399 82.725136,140.579681 120.890549,130.631378 
	C123.291092,130.005646 125.760666,129.644714 128.593872,129.186493 
	C127.922646,130.108826 126.996338,131.384888 125.766106,131.840744 
	C117.009995,135.085281 108.143181,138.034302 99.415588,141.350998 
	C95.537361,142.824829 91.011887,143.668915 89.150314,148.692657 
z"/>
<path fill="#96D7C2" opacity="1.000000" stroke="none" 
	d="
M378.308990,440.875610 
	C377.729675,438.708771 377.053650,436.348358 377.282867,434.079407 
	C377.497925,431.950317 378.132843,429.407104 379.525543,427.942169 
	C383.187500,424.090210 387.613373,420.960938 391.244171,417.084167 
	C393.630615,414.536072 395.164825,411.189758 397.080658,408.200897 
	C396.829132,407.687408 396.577606,407.173920 396.326050,406.660400 
	C390.802338,407.595245 385.278656,408.530090 378.507446,409.676056 
	C377.739288,406.393311 376.082825,402.911835 376.360413,399.592072 
	C376.708984,395.423248 381.138458,396.361542 383.082336,397.429260 
	C388.377350,400.337524 391.313873,398.703979 393.876068,393.904419 
	C394.467773,392.796021 396.437439,392.423218 398.276062,391.443970 
	C398.448608,393.457886 398.549103,394.630707 398.660400,395.929932 
	C402.410400,395.790527 403.674927,394.704895 403.656525,390.755585 
	C403.639069,387.000519 403.154663,382.132416 408.454773,380.008423 
	C404.515442,403.106567 395.013123,423.632202 378.308990,440.875610 
z"/>
<path fill="#96D7C2" opacity="1.000000" stroke="none" 
	d="
M409.281128,377.725891 
	C408.355438,376.558868 407.247375,375.148773 407.093750,373.641357 
	C406.637329,369.161926 406.036591,364.595276 406.454681,360.153320 
	C407.033966,353.998779 408.866364,347.963470 409.467621,341.809265 
	C410.113159,335.201569 409.963623,328.515503 410.144470,321.863190 
	C410.389496,312.849213 410.646851,303.835388 410.843109,294.820312 
	C410.944366,290.169189 411.421997,285.440735 410.739014,280.896088 
	C410.423676,278.797882 407.758209,277.035706 406.113525,275.160431 
	C404.985840,273.874634 403.780914,272.656586 401.743164,270.483154 
	C410.882477,270.806030 411.182404,270.321899 410.070282,262.924866 
	C409.458160,258.853424 409.483948,254.688629 408.942352,250.602997 
	C408.650421,248.400879 407.232697,246.269165 407.263916,244.119339 
	C407.330200,239.553787 408.012115,234.997177 408.751190,230.203308 
	C410.341858,239.784393 412.566681,249.583618 412.727661,259.416626 
	C413.215363,289.206970 413.170746,319.014191 412.748657,348.806549 
	C412.613220,358.363739 410.657745,367.895142 409.281128,377.725891 
z"/>
<path fill="#96D7C2" opacity="1.000000" stroke="none" 
	d="
M317.830231,130.628113 
	C310.665710,131.173447 302.505768,133.653885 296.004059,131.384186 
	C276.968964,124.739174 257.848175,129.242630 238.810394,128.563889 
	C229.213333,128.221725 219.606232,128.084778 210.002563,128.022430 
	C196.376160,127.933990 182.743820,127.790657 169.124374,128.110962 
	C164.205750,128.226654 159.311462,129.797150 154.252930,127.287949 
	C155.745560,126.703819 157.484970,126.126198 159.225174,126.123779 
	C200.156433,126.066780 241.091736,125.753975 282.016632,126.264305 
	C293.890564,126.412369 305.734650,128.950424 317.830231,130.628113 
z"/>
<path fill="#96D7C2" opacity="1.000000" stroke="none" 
	d="
M286.404083,486.092407 
	C286.972504,483.737854 287.557159,481.093872 288.852600,478.862518 
	C290.429016,476.147095 293.043518,475.123291 296.124878,476.604462 
	C298.929108,477.952423 300.940216,478.118408 304.126373,476.081451 
	C307.653259,473.826691 312.741333,474.129486 317.050262,472.954590 
	C323.102478,471.304382 329.170197,469.601807 335.029388,467.387421 
	C339.771332,465.595306 344.225281,463.034607 348.780975,460.762726 
	C349.505737,460.401306 350.540649,459.863617 350.676880,459.241913 
	C352.291351,451.874268 357.628693,452.209229 363.670319,453.026459 
	C358.692108,456.984741 353.586090,461.472748 347.798401,464.761017 
	C336.107666,471.403229 323.355621,475.476532 310.229675,478.305481 
	C307.483246,478.897400 304.660065,479.381775 301.862732,479.437683 
	C295.867432,479.557556 290.969940,481.938324 286.404083,486.092407 
z"/>
<path fill="#A096C3" opacity="1.000000" stroke="none" 
	d="
M992.928711,203.459549 
	C993.330933,204.387421 993.955078,205.780350 993.955994,207.173721 
	C994.003235,278.741577 993.998413,350.309479 993.983459,421.877350 
	C993.983276,422.693817 993.777710,423.510254 993.396057,424.628723 
	C993.022644,423.775482 992.832275,422.620178 992.832275,421.464874 
	C992.831665,348.951538 992.846436,276.438171 992.928711,203.459549 
z"/>
<path fill="#96D7C2" opacity="1.000000" stroke="none" 
	d="
M151.724701,126.812515 
	C151.195328,129.960846 149.629807,131.498428 146.302444,131.048141 
	C141.400375,130.384781 136.454285,130.046677 131.261719,129.282364 
	C137.820999,128.186142 144.645493,127.377617 151.724701,126.812515 
z"/>
<path fill="#96D7C2" opacity="1.000000" stroke="none" 
	d="
M367.391052,451.023102 
	C367.700439,445.586151 371.414124,443.209351 376.672913,442.018158 
	C373.945496,444.999756 370.835571,447.979187 367.391052,451.023102 
z"/>
<path fill="#96D7C2" opacity="1.000000" stroke="none" 
	d="
M331.801392,134.679016 
	C328.055908,133.894135 324.093140,132.826279 320.066101,131.399139 
	C323.862579,132.158585 327.723358,133.277298 331.801392,134.679016 
z"/>
<path fill="#96D7C2" opacity="1.000000" stroke="none" 
	d="
M278.495819,492.140869 
	C278.257660,488.822937 280.379639,487.960388 283.625488,488.002686 
	C282.285034,489.376923 280.559723,490.750336 278.495819,492.140869 
z"/>
<path fill="#96D7C2" opacity="1.000000" stroke="none" 
	d="
M337.818604,136.703064 
	C336.714752,136.584824 335.405151,136.217957 334.050720,135.526077 
	C335.208221,135.618866 336.410522,136.036667 337.818604,136.703064 
z"/>
<path fill="#96D7C2" opacity="1.000000" stroke="none" 
	d="
M366.248596,451.951965 
	C366.206421,451.775635 366.402374,451.501434 366.837158,451.130371 
	C366.879578,451.307068 366.683167,451.580566 366.248596,451.951965 
z"/>
<path fill="#FDFEFE" opacity="1.000000" stroke="none" 
	d="
M539.060669,337.158752 
	C539.900696,324.064880 542.395752,311.946075 550.061096,301.472595 
	C566.761292,278.654419 600.983582,279.070831 617.147461,302.261414 
	C631.741333,323.199463 630.374634,361.199829 614.341187,380.289673 
	C597.828003,399.950714 564.969360,398.676392 549.882935,377.859924 
	C541.141479,365.798401 539.093323,352.001099 539.060669,337.158752 
z"/>
<path fill="#FEFDFE" opacity="1.000000" stroke="none" 
	d="
M1426.322998,388.340881 
	C1413.649414,400.030060 1390.084839,402.636383 1377.874146,393.921875 
	C1366.540771,385.833496 1366.503052,367.069916 1378.467896,359.960358 
	C1384.436890,356.413635 1391.524414,354.125397 1398.398804,352.862335 
	C1410.903687,350.564697 1423.627075,349.456787 1436.829712,347.779968 
	C1437.265625,362.643341 1438.881958,377.073944 1426.322998,388.340881 
z"/>
<path fill="#FDFEFE" opacity="1.000000" stroke="none" 
	d="
M895.422668,286.317810 
	C911.301147,291.653381 920.791199,302.655914 924.934021,318.053589 
	C930.307434,338.024689 929.556335,357.479706 918.242493,375.692841 
	C905.687378,395.904358 874.410278,401.062988 854.993164,383.047760 
	C847.159485,375.779633 842.859192,366.148193 840.663635,355.599976 
	C837.488647,340.345642 838.568970,325.465210 844.612122,311.132446 
	C853.069824,291.072998 872.687134,281.510742 895.422668,286.317810 
z"/>
<path fill="#FEFEFE" opacity="1.000000" stroke="none" 
	d="
M325.924866,182.096634 
	C333.053223,188.216782 340.823151,193.739761 347.209442,200.558624 
	C358.747711,212.878448 363.501923,228.591873 365.888733,244.859497 
	C367.376221,254.997498 367.883392,265.343994 367.995911,275.606049 
	C368.256683,299.393311 368.458405,323.197876 367.833221,346.973053 
	C367.301605,367.188446 362.687134,386.534332 350.426086,403.204529 
	C346.910095,407.984985 342.340729,411.990723 338.091583,416.639343 
	C337.928833,416.927032 337.968262,416.947449 337.619904,416.997070 
	C326.308899,425.237518 313.917114,430.106232 300.573212,432.671112 
	C295.741821,433.599762 290.850403,434.215881 285.986359,434.974640 
	C285.235077,434.992950 284.483826,435.011292 283.366882,435.121552 
	C275.668457,436.224945 270.411713,440.882111 265.106567,445.434387 
	C252.743973,456.042755 240.402176,466.675354 228.032562,477.275482 
	C227.425064,477.796051 226.633499,478.101807 224.963898,479.061676 
	C224.963898,476.704193 225.017899,475.012238 224.954575,473.324646 
	C224.680649,466.025452 224.955261,458.645447 223.942413,451.447968 
	C222.352890,440.152435 214.821259,434.180237 203.227798,434.110321 
	C187.404129,434.014832 171.565765,434.447113 155.759369,433.904724 
	C137.891190,433.291626 120.823463,429.301086 106.007553,418.533569 
	C88.703766,405.958008 78.886185,388.743774 75.028442,367.918549 
	C74.455124,364.823639 74.026489,361.701935 73.304733,357.890808 
	C72.998016,356.126373 72.917480,355.063751 72.888206,353.554810 
	C72.947090,319.739288 72.954704,286.370178 73.016190,252.637604 
	C73.085892,251.541443 73.101730,250.808731 73.357574,249.800507 
	C75.288109,235.328049 79.222557,221.914536 86.694206,209.562485 
	C93.356110,198.549088 102.691414,190.360535 113.082344,183.152344 
	C113.621635,182.974106 114.160927,182.795868 115.250992,182.344513 
	C134.526627,172.572815 154.625748,171.565887 175.116638,171.823746 
	C205.604614,172.207397 236.107544,172.296341 266.591705,171.779556 
	C287.146240,171.431137 307.119049,173.087479 325.936218,182.096893 
	C325.936218,182.096893 325.942749,182.083603 325.924866,182.096634 
M125.553696,323.924561 
	C141.236557,340.724426 157.149307,357.317230 172.529587,374.389679 
	C184.842300,388.057068 198.464874,388.773407 210.979050,375.356445 
	C226.424927,358.796265 241.625992,342.007507 257.090576,325.465027 
	C275.742859,305.512665 294.732910,285.872589 313.167419,265.722870 
	C317.040619,261.489349 320.659790,255.925339 321.724518,250.454483 
	C323.792053,239.830933 318.873932,231.661499 310.326874,227.779938 
	C301.445862,223.746704 292.510406,225.703094 284.976685,233.612976 
	C274.064758,245.069687 263.261566,256.630157 252.443604,268.176056 
	C239.462723,282.030396 226.524536,295.924683 213.549271,309.784302 
	C206.636353,317.168365 199.684219,324.515686 192.039902,332.633453 
	C190.598007,330.772888 189.584488,329.227936 188.341125,327.897766 
	C177.309586,316.096039 166.271835,304.299622 155.161057,292.572632 
	C150.328918,287.472473 144.395798,284.718323 137.262634,285.598236 
	C128.310349,286.702484 122.187325,291.879761 119.179375,300.144196 
	C115.961670,308.984955 118.402710,316.841217 125.553696,323.924561 
z"/>
<path fill="#96D7C2" opacity="1.000000" stroke="none" 
	d="
M325.926971,181.741104 
	C307.119049,173.087479 287.146240,171.431137 266.591705,171.779556 
	C236.107544,172.296341 205.604614,172.207397 175.116638,171.823746 
	C154.625748,171.565887 134.526627,172.572815 115.431442,182.120422 
	C115.085045,181.838562 114.974823,181.354492 115.152374,181.199005 
	C120.340500,176.655182 125.073692,171.669876 129.890381,166.760529 
	C131.705536,164.910461 137.085114,165.143829 140.207321,166.235794 
	C153.380814,170.843124 166.925537,169.979370 180.435959,169.989990 
	C217.374435,170.019028 254.316559,169.721130 291.248901,170.198120 
	C300.364349,170.315842 309.556213,172.443344 318.483673,174.597122 
	C321.341248,175.286499 323.460602,179.035950 325.926971,181.741104 
z"/>
<path fill="#96D7C2" opacity="1.000000" stroke="none" 
	d="
M112.859665,182.869019 
	C102.691414,190.360535 93.356110,198.549088 86.694206,209.562485 
	C79.222557,221.914536 75.288109,235.328049 73.056366,249.547531 
	C72.119499,246.874039 71.308998,244.159683 71.427124,241.486328 
	C71.596992,237.641907 72.442734,233.827316 73.000000,230.000000 
	C73.666466,228.251450 74.332932,226.502899 74.999695,224.377167 
	C76.214348,221.911087 77.347725,219.769775 78.659111,217.743698 
	C81.845093,212.821381 85.272957,208.048309 88.291428,203.027588 
	C90.203972,199.846390 91.497665,196.298538 93.189087,192.976318 
	C93.857491,191.663467 94.607643,189.801376 95.739304,189.414642 
	C101.505020,187.444275 105.593170,181.293152 112.859665,182.869019 
z"/>
<path fill="#95D8C3" opacity="1.000000" stroke="none" 
	d="
M72.836929,354.001160 
	C72.917480,355.063751 72.998016,356.126373 73.055885,357.588562 
	C72.860870,357.990936 72.688522,357.993683 72.257629,357.998840 
	C68.023186,358.090515 64.048981,358.460022 60.886196,355.067413 
	C60.130955,354.257294 58.372669,353.924286 57.163952,354.075775 
	C52.421982,354.670197 51.170307,351.474304 51.158955,348.050629 
	C51.144093,343.566833 51.395565,339.367371 56.493881,336.356506 
	C60.546413,333.963226 63.188931,329.182373 67.009727,325.487915 
	C66.908623,327.808167 66.268211,330.105835 65.597542,332.394653 
	C65.104721,334.076538 64.577759,335.748505 64.056046,337.421783 
	C63.441883,339.391632 63.069881,341.490173 62.129318,343.290802 
	C61.076679,345.305969 58.793720,347.349396 61.820023,349.086823 
	C65.289330,351.078522 69.147621,352.392670 72.836929,354.001160 
z"/>
<path fill="#95D8C3" opacity="1.000000" stroke="none" 
	d="
M267.000305,496.000610 
	C266.015289,501.082001 262.790894,503.052734 257.784698,503.071350 
	C255.432907,503.080078 253.083939,503.851593 250.744308,504.275513 
	C250.580704,499.358246 259.567230,494.388062 266.598816,495.991455 
	C266.998779,495.998779 267.000000,496.000000 267.000305,496.000610 
z"/>
<path fill="#96D7C2" opacity="1.000000" stroke="none" 
	d="
M286.218353,435.252502 
	C290.850403,434.215881 295.741821,433.599762 300.573212,432.671112 
	C313.917114,430.106232 326.308899,425.237518 337.612244,416.985229 
	C336.717590,418.573761 335.731781,420.520264 334.195770,421.813141 
	C330.844513,424.633820 327.277496,427.215729 323.658722,429.690643 
	C322.525940,430.465363 320.921722,430.521545 319.576447,431.022583 
	C318.078705,431.580444 315.899506,431.869995 315.293274,432.975983 
	C313.233521,436.733795 309.944305,436.786285 306.406128,437.066528 
	C303.370056,437.306946 300.398071,438.368591 297.362396,438.597321 
	C295.368469,438.747559 293.260406,438.245575 291.298523,437.696259 
	C289.612518,437.224182 288.061218,436.270905 286.218353,435.252502 
z"/>
<path fill="#96D7C2" opacity="1.000000" stroke="none" 
	d="
M282.742554,475.534607 
	C283.333282,474.844147 284.159149,474.374634 284.985046,473.905121 
	C285.160004,474.368164 285.334930,474.831207 285.509857,475.294250 
	C284.665802,475.447998 283.821777,475.601746 282.742554,475.534607 
z"/>
<path fill="#95D8C3" opacity="1.000000" stroke="none" 
	d="
M72.560928,230.000000 
	C72.442734,233.827316 71.596992,237.641907 71.427124,241.486328 
	C71.308998,244.159683 72.119499,246.874039 72.816360,249.823059 
	C73.101730,250.808731 73.085892,251.541443 72.647049,252.684723 
	C71.394081,254.213486 69.928032,255.282410 69.836990,256.457825 
	C69.229950,264.295044 68.764442,272.151001 68.559097,280.008881 
	C68.412254,285.627869 68.802162,291.258942 68.837090,296.885345 
	C68.858261,300.296356 69.222321,303.850220 68.409760,307.082916 
	C67.494820,310.722931 71.353737,314.922974 67.000000,318.000000 
	C66.569038,317.309814 66.197823,316.066986 65.698105,316.012970 
	C58.975266,315.286316 60.080933,309.938354 59.809330,305.199615 
	C57.826115,305.308960 56.253204,305.395691 53.784451,305.531799 
	C53.532871,301.815552 53.124836,298.088196 53.150230,294.363800 
	C53.155796,293.547638 54.574406,292.487976 55.567036,291.977631 
	C58.968933,290.228760 59.271057,289.650574 58.192589,285.360138 
	C54.650452,286.233002 51.081322,287.112549 47.512192,287.992065 
	C47.341713,287.489105 47.171238,286.986145 47.000759,286.483185 
	C48.595470,285.390564 50.658806,284.624756 51.693256,283.141418 
	C54.343552,279.341095 52.030987,274.539185 46.830662,272.079254 
	C45.789089,271.586548 44.348282,270.824677 44.123554,269.928223 
	C43.463806,267.296387 42.346508,265.815796 39.395302,265.869110 
	C38.652687,265.882538 37.887119,264.625000 37.132107,263.951508 
	C37.918060,263.307678 38.671631,262.157928 39.495407,262.105225 
	C43.674061,261.837891 45.633789,260.357849 44.537071,255.729752 
	C43.963676,253.310043 45.039066,251.538559 48.285309,252.514221 
	C49.603668,252.910431 51.214794,252.332565 52.798286,252.188309 
	C51.689144,248.972473 50.821079,246.455597 49.600006,242.915222 
	C49.257362,244.244217 48.898888,245.634598 48.494709,247.202271 
	C42.951664,240.716095 42.680950,232.768951 46.618927,225.461197 
	C46.925140,225.461197 47.403149,225.321457 47.545959,225.481262 
	C54.577133,233.348938 63.676159,229.900177 72.560928,230.000000 
z"/>
<path fill="#96D7C2" opacity="1.000000" stroke="none" 
	d="
M67.000000,318.333313 
	C71.353737,314.922974 67.494820,310.722931 68.409760,307.082916 
	C69.222321,303.850220 68.858261,300.296356 68.837090,296.885345 
	C68.802162,291.258942 68.412254,285.627869 68.559097,280.008881 
	C68.764442,272.151001 69.229950,264.295044 69.836990,256.457825 
	C69.928032,255.282410 71.394081,254.213486 72.593193,253.048172 
	C72.954704,286.370178 72.947090,319.739288 72.888199,353.554810 
	C69.147621,352.392670 65.289330,351.078522 61.820023,349.086823 
	C58.793720,347.349396 61.076679,345.305969 62.129318,343.290802 
	C63.069881,341.490173 63.441883,339.391632 64.056046,337.421783 
	C64.577759,335.748505 65.104721,334.076538 65.597542,332.394653 
	C66.268211,330.105835 66.908623,327.808167 67.281006,325.257141 
	C67.000000,324.250000 67.000000,323.500000 67.226105,322.229736 
	C67.301476,321.139618 67.150734,320.569824 67.000000,320.000000 
	C67.000000,319.555542 67.000000,319.111115 67.000000,318.333313 
z"/>
<path fill="#95D8C3" opacity="1.000000" stroke="none" 
	d="
M36.398300,250.798126 
	C40.098415,251.248398 39.052059,252.849228 36.654175,255.855194 
	C36.420029,253.477707 36.301952,252.278778 36.398300,250.798126 
z"/>
<path fill="#95D8C3" opacity="1.000000" stroke="none" 
	d="
M66.773888,320.145264 
	C67.150734,320.569824 67.301476,321.139618 67.226105,321.854736 
	C66.849258,321.430176 66.698517,320.860382 66.773888,320.145264 
z"/>
<path fill="#95D8C3" opacity="1.000000" stroke="none" 
	d="
M373.954590,231.606766 
	C373.712341,231.209808 373.714050,230.814896 373.744293,230.422165 
	C373.745148,230.411133 374.051208,230.423599 374.214966,230.425110 
	C374.210815,230.819778 374.206635,231.214432 373.954590,231.606766 
z"/>
<path fill="#F2A272" opacity="1.000000" stroke="none" 
	d="
M125.306160,323.668945 
	C118.402710,316.841217 115.961670,308.984955 119.179375,300.144196 
	C122.187325,291.879761 128.310349,286.702484 137.262634,285.598236 
	C144.395798,284.718323 150.328918,287.472473 155.161057,292.572632 
	C166.271835,304.299622 177.309586,316.096039 188.341125,327.897766 
	C189.584488,329.227936 190.598007,330.772888 192.039902,332.633453 
	C199.684219,324.515686 206.636353,317.168365 213.549271,309.784302 
	C226.524536,295.924683 239.462723,282.030396 252.443604,268.176056 
	C263.261566,256.630157 274.064758,245.069687 284.976685,233.612976 
	C292.510406,225.703094 301.445862,223.746704 310.326874,227.779938 
	C318.873932,231.661499 323.792053,239.830933 321.724518,250.454483 
	C320.659790,255.925339 317.040619,261.489349 313.167419,265.722870 
	C294.732910,285.872589 275.742859,305.512665 257.090576,325.465027 
	C241.625992,342.007507 226.424927,358.796265 210.979050,375.356445 
	C198.464874,388.773407 184.842300,388.057068 172.529587,374.389679 
	C157.149307,357.317230 141.236557,340.724426 125.306160,323.668945 
z"/>
</svg>